<?xml version="1.0" encoding="UTF-8" standalone="no"?><svg xmlns="http://www.w3.org/2000/svg" xmlns:xlink="http://www.w3.org/1999/xlink" fill="#000000" height="1026.5" preserveAspectRatio="xMidYMid meet" version="1" viewBox="379.3 486.8 1241.4 1026.5" width="1241.4" zoomAndPan="magnify"><g fill="#ffffff" id="change1_1"><path d="M 1566.53125 1147.421875 L 433.472656 1147.421875 L 433.472656 545.808594 C 433.472656 543.121094 435.664062 540.960938 438.347656 540.960938 L 1561.679688 540.960938 C 1564.328125 540.960938 1566.53125 543.121094 1566.53125 545.808594 Z M 1124.199219 1263.988281 C 1118.378906 1269.808594 1110.300781 1273.441406 1101.390625 1273.441406 L 898.609375 1273.441406 C 880.78125 1273.441406 866.339844 1258.96875 866.339844 1241.148438 C 866.339844 1232.230469 869.945312 1224.160156 875.796875 1218.328125 C 881.621094 1212.480469 889.695312 1208.878906 898.609375 1208.878906 L 1101.390625 1208.878906 C 1119.21875 1208.878906 1133.660156 1223.320312 1133.660156 1241.148438 C 1133.660156 1250.058594 1130.058594 1258.128906 1124.199219 1263.988281 Z M 1561.679688 486.769531 L 438.347656 486.769531 C 405.78125 486.769531 379.28125 513.269531 379.28125 545.808594 L 379.28125 1260.488281 C 379.28125 1293.03125 405.78125 1319.53125 438.347656 1319.53125 L 1561.679688 1319.53125 C 1594.21875 1319.53125 1620.71875 1293.03125 1620.71875 1260.488281 L 1620.71875 545.808594 C 1620.71875 513.269531 1594.21875 486.769531 1561.679688 486.769531"/><path d="M 1117.398438 1241.148438 C 1117.398438 1245.429688 1115.71875 1249.460938 1112.710938 1252.5 C 1109.679688 1255.511719 1105.671875 1257.191406 1101.390625 1257.191406 L 898.609375 1257.191406 C 889.777344 1257.191406 882.597656 1249.980469 882.597656 1241.148438 C 882.597656 1236.859375 884.25 1232.851562 887.3125 1229.789062 C 890.320312 1226.789062 894.328125 1225.128906 898.609375 1225.128906 L 1101.390625 1225.128906 C 1110.21875 1225.128906 1117.398438 1232.308594 1117.398438 1241.148438"/><path d="M 1365.089844 1513.230469 L 634.933594 1513.230469 C 649.429688 1470.71875 689.773438 1440.050781 737.136719 1440.050781 L 1262.890625 1440.050781 C 1310.28125 1440.050781 1350.589844 1470.71875 1365.089844 1513.230469"/><path d="M 1138.980469 1420.429688 L 861.042969 1420.429688 L 888.378906 1339.148438 L 1111.640625 1339.148438 L 1138.980469 1420.429688"/></g></svg>