<?xml version="1.0" encoding="UTF-8" standalone="no"?><svg xmlns="http://www.w3.org/2000/svg" xmlns:xlink="http://www.w3.org/1999/xlink" fill="#000000" height="48" preserveAspectRatio="xMidYMid meet" version="1" viewBox="-0.1 0.0 48.1 48.0" width="48.1" zoomAndPan="magnify"><g data-name="28-tread animal" fill="#ffffff" id="change1_1"><path d="M40,48H12a1,1,0,0,1-1-1V38h2v8H38.969A18.713,18.713,0,0,0,33.68,34.363a17.773,17.773,0,0,0-6.832-4.509,8.662,8.662,0,0,1-3.982-2.906,4.758,4.758,0,0,1-.3-.393l1.664-1.11c.062.092.132.176.2.26a6.693,6.693,0,0,0,3.081,2.263,19.761,19.761,0,0,1,7.608,5.01A20.535,20.535,0,0,1,41,47,1,1,0,0,1,40,48Z" fill="inherit"/><path d="M8,31H3.85A3.931,3.931,0,0,1,0,27V25.97A4.878,4.878,0,0,1,4.77,21h2.4a.887.887,0,0,0,.755-.447l1.339-2.22A4.711,4.711,0,0,1,13.32,16h4.62a4.842,4.842,0,0,1,3.239,1.257l-1.338,1.486A2.847,2.847,0,0,0,17.94,18H13.32a2.729,2.729,0,0,0-2.342,1.364L9.637,21.587A2.872,2.872,0,0,1,7.17,23H4.77A2.878,2.878,0,0,0,2,25.97V27a1.932,1.932,0,0,0,1.85,2H8Z" fill="inherit"/><path d="M12,39H3a1,1,0,0,1-.707-1.707l21-21A1,1,0,0,1,25,17v9a1,1,0,0,1-.293.707l-12,12A1,1,0,0,1,12,39ZM5.414,37h6.172L23,25.586V19.422l-.531.534Z" fill="inherit"/><path d="M43,48H40V46h3a3,3,0,0,0,3-3V5a3,3,0,0,0-3-3H36V4H34V1a1,1,0,0,1,1-1h8a5.006,5.006,0,0,1,5,5V43A5.006,5.006,0,0,1,43,48Z" fill="inherit"/><path d="M34.932,9.884a3.669,3.669,0,0,1-2.639-1.177,1.725,1.725,0,0,0-2.592.006l-1.408-1.42a3.722,3.722,0,0,1,5.414,0A1.725,1.725,0,0,0,36.3,7.287a3.718,3.718,0,0,1,5.408.006L40.293,8.707a1.725,1.725,0,0,0-2.592.006A4.055,4.055,0,0,1,34.932,9.884Z" fill="inherit"/><path d="M37 10H41V12H37z" fill="inherit"/><path d="M37 13H41V15H37z" fill="inherit"/><path d="M38,21H32a1,1,0,0,1-1-1V18.568A5,5,0,0,1,28,14V4a1,1,0,0,1,1-1H41a1,1,0,0,1,1,1V14a5,5,0,0,1-3,4.568V20A1,1,0,0,1,38,21Zm-5-2h4V17.86a1,1,0,0,1,.747-.967A3,3,0,0,0,40,14V5H30v9a3,3,0,0,0,2.253,2.893A1,1,0,0,1,33,17.86Z" fill="inherit"/><path d="M35.345,34.1,33.354,33.9c.014-.139.038-.277.063-.416a6.179,6.179,0,0,1,.726-2,.993.993,0,0,1,.15-.192,1.725,1.725,0,0,0-.006-2.592,3.719,3.719,0,0,1,.006-5.408,1.725,1.725,0,0,0-.006-2.592l1.42-1.408a3.721,3.721,0,0,1,0,5.414,1.725,1.725,0,0,0,.006,2.592,3.717,3.717,0,0,1,.1,5.3,4.254,4.254,0,0,0-.423,1.229C35.368,33.935,35.353,34.016,35.345,34.1Z" fill="inherit"/></g></svg>