<?xml version="1.0" encoding="UTF-8" standalone="no"?><svg xmlns="http://www.w3.org/2000/svg" xmlns:xlink="http://www.w3.org/1999/xlink" fill="#000000" height="68" preserveAspectRatio="xMidYMid meet" version="1" viewBox="0.0 0.0 63.5 68.0" width="63.5" zoomAndPan="magnify"><defs><clipPath id="a"><path d="M 38 36 L 63.460938 36 L 63.460938 62 L 38 62 Z M 38 36"/></clipPath><clipPath id="b"><path d="M 0 0 L 41 0 L 41 67.988281 L 0 67.988281 Z M 0 0"/></clipPath></defs><g><g id="change1_3"><path d="M 10.199219 36.261719 C 11.449219 36.261719 12.464844 35.246094 12.464844 33.996094 C 12.464844 32.746094 11.449219 31.730469 10.199219 31.730469 C 8.949219 31.730469 7.933594 32.746094 7.933594 33.996094 C 7.933594 35.246094 8.949219 36.261719 10.199219 36.261719" fill="#ffffff"/></g><g id="change1_4"><path d="M 30.597656 6.800781 C 29.347656 6.800781 28.328125 7.816406 28.328125 9.066406 C 28.328125 10.316406 29.347656 11.332031 30.597656 11.332031 C 31.84375 11.332031 32.859375 10.316406 32.859375 9.066406 C 32.859375 7.816406 31.84375 6.800781 30.597656 6.800781" fill="#ffffff"/></g><g clip-path="url(#a)" id="change1_1"><path d="M 54.394531 55.527344 C 52.070312 55.527344 51.21875 54.359375 50.597656 53.507812 C 50.085938 52.808594 49.746094 52.34375 48.570312 52.179688 C 45.78125 51.785156 43.902344 53.722656 43.882812 53.742188 L 43.101562 54.566406 L 43.058594 54.527344 L 41.925781 53.449219 L 41.457031 53.003906 L 42.238281 52.183594 C 42.273438 52.144531 42.558594 51.851562 43.058594 51.484375 C 44.136719 50.691406 46.203125 49.558594 48.882812 49.933594 C 51.011719 50.230469 51.832031 51.351562 52.429688 52.171875 C 52.957031 52.894531 53.222656 53.257812 54.394531 53.257812 C 57.035156 53.257812 57.925781 51.941406 57.964844 51.886719 L 58.570312 50.960938 L 60.464844 52.113281 L 59.898438 53.066406 C 59.839844 53.164062 58.390625 55.527344 54.394531 55.527344 Z M 47.59375 58.257812 C 45.984375 56.660156 47.59375 58.257812 45.984375 56.660156 L 47.59375 55.050781 L 49.203125 56.660156 Z M 41.925781 45.109375 L 42.007812 44.90625 C 42.257812 44.277344 42.613281 43.5625 43.058594 42.859375 C 44.371094 40.792969 46.480469 38.851562 49.085938 39.71875 C 51.292969 40.457031 52.015625 42.8125 52.597656 44.703125 C 53.199219 46.667969 53.574219 47.59375 54.394531 47.59375 C 56.855469 47.59375 57.816406 43.953125 57.828125 43.917969 L 58.105469 42.820312 L 60.296875 43.371094 L 60.023438 44.46875 C 59.96875 44.6875 58.628906 49.859375 54.394531 49.859375 C 51.808594 49.859375 51.042969 47.371094 50.429688 45.367188 C 49.933594 43.757812 49.46875 42.238281 48.367188 41.871094 C 46.066406 41.109375 44.132812 45.703125 44.109375 45.75 L 43.691406 46.800781 L 43.058594 46.546875 L 41.925781 46.09375 L 41.589844 45.957031 Z M 55.527344 39.195312 L 57.121094 40.792969 L 55.527344 42.390625 C 53.914062 40.792969 55.527344 42.390625 53.914062 40.792969 Z M 50.992188 36.261719 C 47.980469 36.261719 45.21875 37.335938 43.058594 39.117188 C 42.660156 39.449219 42.285156 39.808594 41.925781 40.183594 C 41.519531 40.621094 41.140625 41.082031 40.792969 41.574219 C 39.367188 43.601562 38.527344 46.066406 38.527344 48.726562 C 38.527344 51.386719 39.367188 53.855469 40.792969 55.878906 C 41.140625 56.371094 41.519531 56.832031 41.925781 57.269531 C 42.285156 57.644531 42.660156 58.003906 43.058594 58.335938 C 45.21875 60.117188 47.980469 61.191406 50.992188 61.191406 C 57.867188 61.191406 63.457031 55.601562 63.457031 48.726562 C 63.457031 41.855469 57.867188 36.261719 50.992188 36.261719" fill="#ffffff"/></g><g id="change1_5"><path d="M 10.199219 11.332031 C 11.449219 11.332031 12.464844 10.316406 12.464844 9.066406 C 12.464844 7.816406 11.449219 6.800781 10.199219 6.800781 C 8.949219 6.800781 7.933594 7.816406 7.933594 9.066406 C 7.933594 10.316406 8.949219 11.332031 10.199219 11.332031" fill="#ffffff"/></g><g id="change1_6"><path d="M 30.597656 56.660156 C 29.347656 56.660156 28.328125 57.675781 28.328125 58.925781 C 28.328125 60.175781 29.347656 61.191406 30.597656 61.191406 C 31.84375 61.191406 32.859375 60.175781 32.859375 58.925781 C 32.859375 57.675781 31.84375 56.660156 30.597656 56.660156" fill="#ffffff"/></g><g id="change1_7"><path d="M 10.199219 56.660156 C 8.949219 56.660156 7.933594 57.675781 7.933594 58.925781 C 7.933594 60.175781 8.949219 61.191406 10.199219 61.191406 C 11.449219 61.191406 12.464844 60.175781 12.464844 58.925781 C 12.464844 57.675781 11.449219 56.660156 10.199219 56.660156" fill="#ffffff"/></g><g id="change1_8"><path d="M 30.597656 31.730469 C 29.347656 31.730469 28.328125 32.746094 28.328125 33.996094 C 28.328125 35.246094 29.347656 36.261719 30.597656 36.261719 C 31.84375 36.261719 32.859375 35.246094 32.859375 33.996094 C 32.859375 32.746094 31.84375 31.730469 30.597656 31.730469" fill="#ffffff"/></g><g clip-path="url(#b)" id="change1_2"><path d="M 30.597656 13.597656 C 28.097656 13.597656 26.0625 11.566406 26.0625 9.066406 C 26.0625 6.566406 28.097656 4.53125 30.597656 4.53125 C 33.097656 4.53125 35.128906 6.566406 35.128906 9.066406 C 35.128906 11.566406 33.097656 13.597656 30.597656 13.597656 Z M 30.597656 38.527344 C 28.097656 38.527344 26.0625 36.496094 26.0625 33.996094 C 26.0625 31.496094 28.097656 29.460938 30.597656 29.460938 C 33.097656 29.460938 35.128906 31.496094 35.128906 33.996094 C 35.128906 36.496094 33.097656 38.527344 30.597656 38.527344 Z M 30.597656 63.457031 C 28.097656 63.457031 26.0625 61.425781 26.0625 58.925781 C 26.0625 56.425781 28.097656 54.390625 30.597656 54.390625 C 33.097656 54.390625 35.128906 56.425781 35.128906 58.925781 C 35.128906 61.425781 33.097656 63.457031 30.597656 63.457031 Z M 21.53125 63.457031 L 19.265625 63.457031 L 19.265625 47.59375 L 6.800781 47.59375 L 6.800781 45.328125 L 19.265625 45.328125 L 19.265625 22.664062 L 6.800781 22.664062 L 6.800781 20.398438 L 19.265625 20.398438 L 19.265625 4.53125 L 21.53125 4.53125 L 21.53125 20.398438 L 33.996094 20.398438 L 33.996094 22.664062 L 21.53125 22.664062 L 21.53125 45.328125 L 33.996094 45.328125 L 33.996094 47.59375 L 21.53125 47.59375 Z M 10.199219 63.457031 C 7.699219 63.457031 5.667969 61.425781 5.667969 58.925781 C 5.667969 56.425781 7.699219 54.390625 10.199219 54.390625 C 12.699219 54.390625 14.730469 56.425781 14.730469 58.925781 C 14.730469 61.425781 12.699219 63.457031 10.199219 63.457031 Z M 10.199219 29.460938 C 12.699219 29.460938 14.730469 31.496094 14.730469 33.996094 C 14.730469 36.496094 12.699219 38.527344 10.199219 38.527344 C 7.699219 38.527344 5.667969 36.496094 5.667969 33.996094 C 5.667969 31.496094 7.699219 29.460938 10.199219 29.460938 Z M 10.199219 4.53125 C 12.699219 4.53125 14.730469 6.566406 14.730469 9.066406 C 14.730469 11.566406 12.699219 13.597656 10.199219 13.597656 C 7.699219 13.597656 5.667969 11.566406 5.667969 9.066406 C 5.667969 6.566406 7.699219 4.53125 10.199219 4.53125 Z M 40.792969 38.113281 L 40.792969 3.398438 C 40.792969 1.527344 39.269531 0 37.394531 0 L 3.398438 0 C 1.523438 0 0 1.527344 0 3.398438 L 0 64.589844 C 0 66.464844 1.523438 67.992188 3.398438 67.992188 L 37.394531 67.992188 C 39.269531 67.992188 40.792969 66.464844 40.792969 64.589844 L 40.792969 59.339844 C 38.003906 56.660156 36.261719 52.894531 36.261719 48.726562 C 36.261719 44.558594 38.003906 40.792969 40.792969 38.113281" fill="#ffffff"/></g></g></svg>