<?xml version="1.0" encoding="UTF-8" standalone="no"?><svg xmlns="http://www.w3.org/2000/svg" xmlns:xlink="http://www.w3.org/1999/xlink" fill="#ffffff" height="24.1" preserveAspectRatio="xMidYMid meet" version="1" viewBox="0.0 -0.1 24.1 24.1" width="24.1" zoomAndPan="magnify"><g id="change1_1"><path d="M22.97,12.25l-1.21,4.74C21.32,18.22,20.2,19,18.93,19h-8.89c-1.31,0-2.48-0.85-2.84-2.06L4.08,6.64 C3.97,6.26,3.59,6,3.15,6H1C0.45,6,0,5.55,0,5s0.45-1,1-1h2.15C4.47,4,5.64,4.85,6,6.06L6.59,8l0.6,2l1.92,6.36 C9.23,16.74,9.61,17,10.04,17h8.89c0.42,0,0.79-0.24,0.91-0.59l0.82-3.2c0.13-0.05,0.25-0.11,0.38-0.17c0.76-0.37,1.34-1,1.67-1.75 C22.95,11.53,23.06,11.89,22.97,12.25z"/></g><g id="change1_2"><path d="M11,9.9c0,0.03,0,0.07,0.01,0.1H6c-0.55,0-1-0.45-1-1s0.45-1,1-1h3.66c0.43,0.37,0.93,0.64,1.45,0.8 C11.04,9.16,11,9.53,11,9.9z"/></g><g id="change1_3"><path d="M11,24c-1.103,0-2-0.897-2-2s0.897-2,2-2s2,0.897,2,2S12.103,24,11,24z M11,22h0.01H11z M11,22h0.01H11z M11,22h0.01H11z M11,22h0.01H11z M11,22h0.01H11z M11,21.999h0.01H11z M11,21.999h0.01H11z M11,21.999h0.01H11z"/></g><g id="change1_4"><path d="M18,24c-1.103,0-2-0.897-2-2s0.897-2,2-2s2,0.897,2,2S19.103,24,18,24z M18,22h0.01H18z M18,22h0.01H18z M18,22h0.01H18z M18,22h0.01H18z M18,22h0.01H18z M18,21.999h0.01H18z M18,21.999h0.01H18z M18,21.999h0.01H18z"/></g><g id="change1_5"><path d="M17,12c-1.058,0-2.115-0.254-3.165-0.762c-0.001,0-0.001,0-0.001,0C13.327,10.993,13,10.467,13,9.9C13,7.75,14.794,6,17,6 s4,1.75,4,3.9c0,0.567-0.327,1.093-0.834,1.338C19.115,11.747,18.058,12,17,12z"/></g><g id="change1_6"><path d="M15.32,5.135c-0.231,0-0.465-0.063-0.684-0.187c-0.558-0.317-1-1.033-1.184-1.914c-0.252-1.213,0.026-2.626,1.045-2.979 c0.357-0.125,0.747-0.082,1.097,0.117c0.559,0.317,1.001,1.033,1.186,1.915c0,0,0,0,0,0.001c0.252,1.213-0.026,2.625-1.045,2.978 C15.601,5.112,15.461,5.135,15.32,5.135z"/></g><g id="change1_7"><path d="M18.759,5.135c-0.14,0-0.279-0.023-0.414-0.069c-1.019-0.352-1.297-1.765-1.045-2.978c0.184-0.882,0.626-1.598,1.185-1.915 c0.35-0.198,0.738-0.241,1.097-0.117c1.019,0.353,1.297,1.765,1.045,2.979C20.442,3.916,20,4.632,19.441,4.949 C19.224,5.073,18.99,5.135,18.759,5.135z"/></g><g id="change1_8"><path d="M12.23,6.985c-0.678,0-1.402-0.433-1.853-1.173c-0.348-0.571-0.463-1.213-0.316-1.761c0.109-0.408,0.361-0.738,0.709-0.928 c0.819-0.449,1.941-0.011,2.555,0.997c0.348,0.571,0.463,1.213,0.316,1.761c-0.109,0.408-0.361,0.738-0.709,0.928 C12.715,6.928,12.476,6.985,12.23,6.985z"/></g><g id="change1_9"><path d="M21.77,6.985c-0.245,0-0.484-0.057-0.703-0.177c-0.347-0.19-0.599-0.52-0.708-0.928c-0.146-0.548-0.031-1.19,0.316-1.761 c0.612-1.008,1.734-1.446,2.555-0.997c0.348,0.19,0.6,0.52,0.709,0.928c0.146,0.548,0.031,1.19-0.316,1.761 C23.172,6.552,22.447,6.985,21.77,6.985z"/></g></svg>